HIERARCHY
ROOT Hips
{
	OFFSET 0.000000 89.005402 0.000000
	CHANNELS 6 Xposition Yposition Zposition Xrotation Yrotation Zrotation
	JOINT Spine
	{
		OFFSET 0.116900 10.681000 0.373400
		CHANNELS 3 Xrotation Yrotation Zrotation
		JOINT Spine1
		{
			OFFSET 0.000000 13.840401 0.053500
			CHANNELS 3 Xrotation Yrotation Zrotation
			JOINT Spine2
			{
				OFFSET 0.000000 14.712700 -0.366200
				CHANNELS 3 Xrotation Yrotation Zrotation
				JOINT Neck
				{
					OFFSET 0.000000 35.415497 -3.314200
					CHANNELS 3 Xrotation Yrotation Zrotation
					JOINT Head
					{
						OFFSET 0.000000 16.899200 1.218300
						CHANNELS 3 Xrotation Yrotation Zrotation
						JOINT HeadTop_End
						{
							OFFSET 0.000000 22.206207 2.192500
							CHANNELS 3 Xrotation Yrotation Zrotation
							End Site
							{
								OFFSET 0.000000 22.314178 0.000000
							}
						}
					}
				}
				JOINT LeftShoulder
				{
					OFFSET 12.896400 26.716293 -4.548400
					CHANNELS 3 Xrotation Yrotation Zrotation
					JOINT LeftArm
					{
						OFFSET 19.027000 -4.857010 -1.718400
						CHANNELS 3 Xrotation Yrotation Zrotation
						JOINT LeftForeArm
						{
							OFFSET 24.179897 0.000000 0.000000
							CHANNELS 3 Xrotation Yrotation Zrotation
							JOINT LeftHand
							{
								OFFSET 27.156403 0.000000 0.000000
								CHANNELS 3 Xrotation Yrotation Zrotation
								JOINT LeftHandIndex1
								{
									OFFSET 16.441200 0.000000 0.000000
									CHANNELS 3 Xrotation Yrotation Zrotation
									JOINT LeftHandIndex2
									{
										OFFSET 4.821899 0.000000 0.000000
										CHANNELS 3 Xrotation Yrotation Zrotation
										JOINT LeftHandIndex3
										{
											OFFSET 6.386497 0.000000 0.000000
											CHANNELS 3 Xrotation Yrotation Zrotation
											JOINT LeftHandIndex4
											{
												OFFSET 5.188988 0.000000 0.000000
												CHANNELS 3 Xrotation Yrotation Zrotation
												End Site
												{
													OFFSET -0.178703 5.185913 0.000177
												}
											}
										}
									}
								}
								JOINT LeftHandThumb1
								{
									OFFSET 6.534897 -5.032593 5.900300
									CHANNELS 3 Xrotation Yrotation Zrotation
									JOINT LeftHandThumb2
									{
										OFFSET 3.818176 -2.204422 2.204423
										CHANNELS 3 Xrotation Yrotation Zrotation
										JOINT LeftHandThumb3
										{
											OFFSET 3.252098 -1.877594 1.877601
											CHANNELS 3 Xrotation Yrotation Zrotation
											JOINT LeftHandThumb4
											{
												OFFSET 5.251778 -3.032120 3.032117
												CHANNELS 3 Xrotation Yrotation Zrotation
												End Site
												{
													OFFSET 0.000023 6.780014 0.000000
												}
											}
										}
									}
								}
							}
						}
					}
				}
				JOINT RightShoulder
				{
					OFFSET -12.896300 26.716293 -4.548400
					CHANNELS 3 Xrotation Yrotation Zrotation
					JOINT RightArm
					{
						OFFSET -19.027000 -4.857010 -1.718400
						CHANNELS 3 Xrotation Yrotation Zrotation
						JOINT RightForeArm
						{
							OFFSET -24.179897 0.000000 0.000000
							CHANNELS 3 Xrotation Yrotation Zrotation
							JOINT RightHand
							{
								OFFSET -27.156403 0.000000 0.000000
								CHANNELS 3 Xrotation Yrotation Zrotation
								JOINT RightHandThumb1
								{
									OFFSET -6.591202 -4.852203 5.988100
									CHANNELS 3 Xrotation Yrotation Zrotation
									JOINT RightHandThumb2
									{
										OFFSET -3.818176 -2.204422 2.204423
										CHANNELS 3 Xrotation Yrotation Zrotation
										JOINT RightHandThumb3
										{
											OFFSET -3.252098 -1.877594 1.877601
											CHANNELS 3 Xrotation Yrotation Zrotation
											JOINT RightHandThumb4
											{
												OFFSET -5.251778 -3.032120 3.032117
												CHANNELS 3 Xrotation Yrotation Zrotation
												End Site
												{
													OFFSET -0.000023 6.780014 0.000000
												}
											}
										}
									}
								}
								JOINT RightHandIndex1
								{
									OFFSET -16.029404 0.000000 0.000000
									CHANNELS 3 Xrotation Yrotation Zrotation
									JOINT RightHandIndex2
									{
										OFFSET -5.213303 0.000000 0.000000
										CHANNELS 3 Xrotation Yrotation Zrotation
										JOINT RightHandIndex3
										{
											OFFSET -6.386528 0.000000 0.000000
											CHANNELS 3 Xrotation Yrotation Zrotation
											JOINT RightHandIndex4
											{
												OFFSET -5.189026 0.000000 0.000000
												CHANNELS 3 Xrotation Yrotation Zrotation
												End Site
												{
													OFFSET 0.236702 5.183624 0.001972
												}
											}
										}
									}
								}
							}
						}
					}
				}
			}
		}
	}
	JOINT LeftUpLeg
	{
		OFFSET 14.073000 -7.904099 -1.463000
		CHANNELS 3 Xrotation Yrotation Zrotation
		JOINT LeftLeg
		{
			OFFSET -0.109806 -34.073280 4.093200
			CHANNELS 3 Xrotation Yrotation Zrotation
			JOINT LeftFoot
			{
				OFFSET 0.109806 -29.899420 -6.319000
				CHANNELS 3 Xrotation Yrotation Zrotation
				JOINT LeftToeBase
				{
					OFFSET 1.551100 -14.988700 20.535801
					CHANNELS 3 Xrotation Yrotation Zrotation
					JOINT LeftToe_End
					{
						OFFSET 0.221200 0.570800 13.248301
						CHANNELS 3 Xrotation Yrotation Zrotation
						End Site
						{
							OFFSET 0.000000 13.262435 0.000000
						}
					}
				}
			}
		}
	}
	JOINT RightUpLeg
	{
		OFFSET -13.839300 -7.904099 -1.463000
		CHANNELS 3 Xrotation Yrotation Zrotation
		JOINT RightLeg
		{
			OFFSET 0.109694 -34.073219 4.093300
			CHANNELS 3 Xrotation Yrotation Zrotation
			JOINT RightFoot
			{
				OFFSET -0.109694 -29.899384 -6.319200
				CHANNELS 3 Xrotation Yrotation Zrotation
				JOINT RightToeBase
				{
					OFFSET -1.551100 -14.988700 20.535801
					CHANNELS 3 Xrotation Yrotation Zrotation
					JOINT RightToe_End
					{
						OFFSET -0.221200 0.570900 13.248299
						CHANNELS 3 Xrotation Yrotation Zrotation
						End Site
						{
							OFFSET 0.000000 13.262440 0.000000
						}
					}
				}
			}
		}
	}
}
MOTION
Frames: 4
Frame Time: 0.033333
-0.615694 85.264328 1.238416 -6.035127 0.210217 -4.975330 12.465082 -3.884951 -2.410461 1.195586 -0.879339 -1.510530 1.210008 -0.813671 -1.515970 -4.321287 7.275176 -1.622832 -4.377480 40.810889 -12.436793 -0.000001 0.000001 0.000000 4.427530 3.883401 -27.739528 28.559719 -36.489241 -9.135456 0.000216 -86.089084 0.000227 20.537674 -23.367233 26.858962 -1.126665 -1.645947 -15.527428 2.549897 4.833530 -55.606732 0.365289 2.038113 -20.320204 -0.000000 -0.000001 0.000001 -7.220052 -16.942334 15.004583 19.287428 22.359560 -4.274263 3.912918 -20.197488 28.094481 -0.000001 -0.000000 -0.000000 2.288217 3.121481 2.411036 64.830503 20.409206 56.451466 0.000014 63.219603 -0.000025 4.350453 -11.523530 36.941286 -7.624543 18.944576 -14.577208 22.407726 -29.579326 7.580739 6.216852 -1.642491 4.433308 -0.000002 -0.000001 0.000001 -3.063895 -1.431000 48.219920 1.156144 -3.073071 41.226445 0.363919 -1.806490 22.778348 0.000003 -0.000002 -0.000000 -16.900651 7.238319 0.498829 33.205573 -8.499767 1.493921 -15.056151 -1.735625 6.552007 0.842897 0.000002 -0.000000 0.000000 0.000000 0.000000 -24.401751 -12.913136 -12.268986 59.094783 -6.548910 4.484956 -6.406861 -1.596451 12.429882 0.627190 0.009579 -0.779125 -0.000001 -0.000000 0.000002 
1.045447 84.773621 -2.550506 -6.340197 -1.296101 -4.516613 11.862270 -3.152566 -3.230792 1.138532 -0.694701 -1.649023 1.149359 -0.628844 -1.656720 -4.360189 7.215987 -1.448708 -4.497092 40.740074 -11.954382 -0.000001 0.000002 -0.000002 4.445120 4.425080 -26.712965 29.976167 -35.601716 -9.046969 0.003428 -88.412626 0.003393 19.205568 -22.075836 24.904562 -1.073432 -1.502612 -15.377083 2.550222 4.833764 -55.610775 0.364723 2.036589 -20.304419 -0.000001 -0.000001 0.000002 -7.220049 -16.942335 15.004585 19.335152 22.470414 -4.336558 3.929093 -20.202977 28.155626 -0.000000 0.000001 0.000000 2.285844 2.968679 2.110448 68.056012 19.322001 55.053575 0.000013 66.368757 0.000010 2.077382 -14.018702 36.173478 -7.624544 18.944580 -14.577210 22.762734 -30.145453 8.007301 6.270979 -1.736269 4.462633 -0.000000 -0.000000 0.000000 -2.972012 -1.655026 49.185370 1.168554 -3.087158 41.457452 0.352209 -1.778346 22.403801 0.000000 -0.000000 0.000000 -20.052872 8.205496 -0.271158 34.138423 -8.247572 0.065484 -14.167834 -1.727920 7.381628 0.770214 0.000000 -0.000002 0.000001 0.000000 -0.000000 -18.173315 -14.792327 -11.103900 63.074550 -5.602580 5.105992 -3.629428 -1.452953 11.775600 -18.534251 0.716910 -1.792649 -0.000000 -0.000001 0.000000 
2.800393 83.871361 -6.448756 -6.165276 -3.457930 -4.209403 11.144002 -2.032833 -3.848118 0.923592 -0.418691 -1.710989 0.928147 -0.356219 -1.721131 -4.266764 7.144557 -1.315136 -4.373955 40.608627 -11.652301 0.000001 -0.000001 0.000000 4.578233 5.245493 -26.342298 31.693413 -34.436000 -8.816339 0.349015 -89.775713 0.347916 18.643946 -20.559730 23.235767 -1.047878 -1.571888 -14.941201 2.551564 4.834658 -55.626433 0.371792 2.055597 -20.502510 -0.000001 -0.000001 0.000002 -7.220050 -16.942334 15.004583 19.400066 22.619922 -4.420917 3.978263 -20.238219 28.329092 -0.000000 -0.000000 0.000000 2.288901 3.056906 2.371955 71.136393 20.087585 52.001177 0.000036 69.391546 -0.000026 4.046671 -17.930333 31.370632 -7.624546 18.944582 -14.577212 23.014719 -30.536290 8.308428 6.281036 -1.761708 4.432855 0.000001 -0.000001 -0.000001 -2.829629 -1.845105 49.655431 1.202948 -3.125615 42.092335 0.344988 -1.760742 22.170024 -0.000000 -0.000001 -0.000000 -24.094116 8.500602 -1.275198 35.291031 -6.971772 -0.758994 -13.005613 -1.707358 8.096466 0.710867 -0.000001 0.000001 0.000001 0.000000 0.000000 -11.225378 -16.051045 -9.067343 62.624577 -1.544284 5.980798 -0.735027 -1.643894 11.144765 -35.426757 2.420728 -2.979808 -0.000000 -0.000001 0.000000 
4.664346 82.849083 -10.400668 -5.373490 -6.218539 -4.062838 10.320213 -0.621109 -4.137207 0.636139 -0.070675 -1.681970 0.633161 -0.014537 -1.692810 -4.228729 7.094978 -1.241150 -4.193938 40.528041 -11.652554 -0.000002 0.000000 0.000000 4.774326 6.097064 -26.508579 33.358511 -32.948044 -8.817390 1.107476 -90.134141 1.109131 18.221975 -18.716537 21.693330 -1.108411 -1.699350 -15.213688 2.553620 4.836077 -55.651152 0.377246 2.070117 -20.654110 -0.000003 -0.000004 -0.000002 -7.220049 -16.942337 15.004578 19.636184 23.150938 -4.725638 4.017751 -20.242866 28.504956 -0.000000 -0.000003 -0.000000 2.293100 3.432400 3.202808 70.908217 19.721039 49.142234 0.000029 69.494894 -0.000023 5.544750 -16.333247 28.823945 -7.624546 18.944576 -14.577208 23.095612 -30.659865 8.404994 4.787978 0.671889 1.560725 0.000003 0.000002 -0.000003 -2.800901 -1.966902 50.362171 1.213573 -3.137317 42.286644 0.337644 -1.742606 21.929460 0.000000 -0.000002 0.000001 -28.604581 8.202343 -2.362189 35.266374 -4.717081 -1.060204 -10.569975 -1.647727 8.745886 0.841681 -0.000001 -0.000000 0.000000 -0.000001 0.000000 -3.927096 -16.483816 -6.463114 57.848055 3.698301 7.202498 0.709270 -2.272963 11.302524 -47.001534 8.138957 -6.464147 -0.000000 -0.000002 0.000000 
